<svg width="1200" height="900" viewBox="0 0 1200 900" fill="none" xmlns="http://www.w3.org/2000/svg">
  <rect width="1200" height="900" fill="#EDE8E0"/>
  <rect x="220" y="58" width="760" height="786" rx="18" fill="#FFFFFF"/>
  <rect x="272" y="124" width="656" height="148" rx="20" fill="#173540"/>
  <text x="316" y="186" fill="#FFF8F0" font-family="Arial, sans-serif" font-size="36" font-weight="700">Unified Asset Review</text>
  <text x="316" y="232" fill="#D8E8EE" font-family="Arial, sans-serif" font-size="22">Bring Dropbox, Google Drive, OneDrive, and iCloud Drive into one review workflow.</text>
  <rect x="272" y="318" width="304" height="188" rx="18" fill="#F8FAFC"/>
  <rect x="624" y="318" width="304" height="188" rx="18" fill="#F8FAFC"/>
  <text x="304" y="362" fill="#111827" font-family="Arial, sans-serif" font-size="20" font-weight="700">What teams see</text>
  <rect x="304" y="388" width="222" height="12" rx="6" fill="#CBD5E1"/>
  <rect x="304" y="414" width="198" height="12" rx="6" fill="#CBD5E1"/>
  <rect x="304" y="440" width="214" height="12" rx="6" fill="#CBD5E1"/>
  <text x="656" y="362" fill="#111827" font-family="Arial, sans-serif" font-size="20" font-weight="700">Why it matters</text>
  <rect x="656" y="388" width="222" height="12" rx="6" fill="#CBD5E1"/>
  <rect x="656" y="414" width="206" height="12" rx="6" fill="#CBD5E1"/>
  <rect x="656" y="440" width="218" height="12" rx="6" fill="#CBD5E1"/>
  <rect x="272" y="544" width="656" height="122" rx="18" fill="#F8FAFC"/>
  <text x="304" y="586" fill="#111827" font-family="Arial, sans-serif" font-size="20" font-weight="700">Connected sources</text>
  <rect x="304" y="608" width="116" height="28" rx="14" fill="#DBEAFE"/>
  <rect x="434" y="608" width="138" height="28" rx="14" fill="#DCFCE7"/>
  <rect x="586" y="608" width="132" height="28" rx="14" fill="#E0E7FF"/>
  <rect x="732" y="608" width="134" height="28" rx="14" fill="#E5E7EB"/>
  <text x="330" y="627" fill="#1D4ED8" font-family="Arial, sans-serif" font-size="14" font-weight="700">Dropbox</text>
  <text x="469" y="627" fill="#15803D" font-family="Arial, sans-serif" font-size="14" font-weight="700">Google Drive</text>
  <text x="617" y="627" fill="#3730A3" font-family="Arial, sans-serif" font-size="14" font-weight="700">OneDrive</text>
  <text x="772" y="627" fill="#4B5563" font-family="Arial, sans-serif" font-size="14" font-weight="700">iCloud Drive</text>
  <rect x="272" y="704" width="656" height="18" rx="9" fill="#E5DED3"/>
  <rect x="272" y="704" width="438" height="18" rx="9" fill="#173540"/>
  <rect x="272" y="746" width="656" height="14" rx="7" fill="#E5E7EB"/>
  <rect x="272" y="772" width="624" height="14" rx="7" fill="#E5E7EB"/>
</svg>
