<svg width="1200" height="900" viewBox="0 0 1200 900" fill="none" xmlns="http://www.w3.org/2000/svg">
  <rect width="1200" height="900" fill="#E9ECEF"/>
  <rect x="70" y="54" width="1060" height="792" rx="22" fill="#F7F7F5"/>
  <rect x="96" y="82" width="1010" height="58" rx="14" fill="#FFFFFF" stroke="#D6D9DF"/>
  <rect x="126" y="100" width="210" height="22" rx="11" fill="#E5E7EB"/>
  <rect x="884" y="96" width="92" height="30" rx="15" fill="#DBEAFE"/>
  <rect x="988" y="96" width="88" height="30" rx="15" fill="#DCFCE7"/>

  <rect x="96" y="164" width="242" height="626" rx="16" fill="#FFFFFF" stroke="#D6D9DF"/>
  <text x="126" y="206" fill="#111827" font-family="Arial, sans-serif" font-size="18" font-weight="700">Linked assets</text>
  <rect x="126" y="230" width="182" height="14" rx="7" fill="#CBD5E1"/>
  <rect x="126" y="274" width="182" height="54" rx="12" fill="#EFF6FF"/>
  <rect x="142" y="292" width="108" height="10" rx="5" fill="#60A5FA"/>
  <rect x="142" y="308" width="148" height="10" rx="5" fill="#93C5FD"/>
  <rect x="126" y="346" width="182" height="54" rx="12" fill="#FFF7ED"/>
  <rect x="142" y="364" width="116" height="10" rx="5" fill="#FB923C"/>
  <rect x="142" y="380" width="144" height="10" rx="5" fill="#FDBA74"/>
  <rect x="126" y="418" width="182" height="54" rx="12" fill="#EEF2FF"/>
  <rect x="142" y="436" width="124" height="10" rx="5" fill="#818CF8"/>
  <rect x="142" y="452" width="152" height="10" rx="5" fill="#A5B4FC"/>

  <rect x="364" y="164" width="742" height="626" rx="16" fill="#FFFFFF" stroke="#D6D9DF"/>
  <text x="396" y="208" fill="#111827" font-family="Arial, sans-serif" font-size="24" font-weight="700">Retail launch board</text>
  <text x="396" y="236" fill="#6B7280" font-family="Arial, sans-serif" font-size="15">Single view combining Dropbox creative, Google Drive planning, OneDrive retail specs, and leadership notes.</text>

  <rect x="396" y="274" width="678" height="132" rx="14" fill="#F8FAFC" stroke="#E5E7EB"/>
  <text x="426" y="310" fill="#111827" font-family="Arial, sans-serif" font-size="18" font-weight="700">Launch sequence</text>
  <line x1="436" y1="356" x2="1034" y2="356" stroke="#CBD5E1" stroke-width="10" stroke-linecap="round"/>
  <rect x="456" y="328" width="162" height="56" rx="14" fill="#2563EB"/>
  <rect x="646" y="328" width="182" height="56" rx="14" fill="#F97316"/>
  <rect x="856" y="328" width="148" height="56" rx="14" fill="#64748B"/>

  <rect x="396" y="434" width="206" height="152" rx="14" fill="#FFFFFF" stroke="#E5E7EB"/>
  <rect x="632" y="434" width="206" height="152" rx="14" fill="#FFFFFF" stroke="#E5E7EB"/>
  <rect x="868" y="434" width="206" height="152" rx="14" fill="#FFFFFF" stroke="#E5E7EB"/>
  <text x="422" y="468" fill="#111827" font-family="Arial, sans-serif" font-size="17" font-weight="700">Creative review</text>
  <text x="658" y="468" fill="#111827" font-family="Arial, sans-serif" font-size="17" font-weight="700">Retail signoff</text>
  <text x="894" y="468" fill="#111827" font-family="Arial, sans-serif" font-size="17" font-weight="700">Leadership notes</text>
  <rect x="422" y="494" width="142" height="12" rx="6" fill="#CBD5E1"/>
  <rect x="422" y="516" width="124" height="12" rx="6" fill="#CBD5E1"/>
  <rect x="658" y="494" width="142" height="12" rx="6" fill="#CBD5E1"/>
  <rect x="658" y="516" width="124" height="12" rx="6" fill="#CBD5E1"/>
  <rect x="894" y="494" width="142" height="12" rx="6" fill="#CBD5E1"/>
  <rect x="894" y="516" width="124" height="12" rx="6" fill="#CBD5E1"/>

  <rect x="396" y="614" width="678" height="144" rx="14" fill="#FFFFFF" stroke="#E5E7EB"/>
  <text x="426" y="650" fill="#111827" font-family="Arial, sans-serif" font-size="18" font-weight="700">Review notes</text>
  <rect x="426" y="674" width="226" height="12" rx="6" fill="#CBD5E1"/>
  <rect x="426" y="698" width="314" height="12" rx="6" fill="#CBD5E1"/>
  <rect x="426" y="722" width="282" height="12" rx="6" fill="#CBD5E1"/>
</svg>
