<svg width="1200" height="900" viewBox="0 0 1200 900" fill="none" xmlns="http://www.w3.org/2000/svg">
  <rect width="1200" height="900" rx="48" fill="#0F2530"/>
  <rect x="80" y="80" width="1040" height="740" rx="36" fill="#F4EFE8"/>
  <rect x="128" y="128" width="640" height="252" rx="28" fill="#173540"/>
  <text x="170" y="204" fill="#FFF8F0" font-family="Arial, sans-serif" font-size="26" font-weight="700">Q2 Launch Board</text>
  <text x="170" y="252" fill="#D8E8EE" font-family="Arial, sans-serif" font-size="46" font-weight="700">Signal the product shift</text>
  <text x="170" y="304" fill="#D8E8EE" font-family="Arial, sans-serif" font-size="22">Lead with proof, then move into retail rollout timing.</text>
  <rect x="804" y="128" width="268" height="252" rx="28" fill="#D77545"/>
  <text x="842" y="228" fill="#FFF8F0" font-family="Arial, sans-serif" font-size="22" font-weight="700">Primary CTA</text>
  <text x="842" y="278" fill="#FFF2E8" font-family="Arial, sans-serif" font-size="18">Book launch review</text>
  <rect x="128" y="424" width="944" height="152" rx="28" fill="#FFFFFF"/>
  <rect x="160" y="462" width="244" height="76" rx="22" fill="#F0E7DB"/>
  <rect x="430" y="462" width="244" height="76" rx="22" fill="#F0E7DB"/>
  <rect x="700" y="462" width="340" height="76" rx="22" fill="#F0E7DB"/>
  <rect x="128" y="612" width="456" height="152" rx="28" fill="#FFFFFF"/>
  <rect x="616" y="612" width="456" height="152" rx="28" fill="#173540"/>
  <text x="170" y="696" fill="#334155" font-family="Arial, sans-serif" font-size="28" font-weight="700">Messaging blocks</text>
  <text x="658" y="696" fill="#FFF8F0" font-family="Arial, sans-serif" font-size="28" font-weight="700">Conversion panel</text>
</svg>
