<svg width="1200" height="900" viewBox="0 0 1200 900" fill="none" xmlns="http://www.w3.org/2000/svg">
  <rect width="1200" height="900" rx="40" fill="#ECE8E1"/>
  <rect x="60" y="50" width="1080" height="800" rx="28" fill="#F8F6F2"/>
  <rect x="60" y="50" width="1080" height="56" rx="28" fill="#E4DED4"/>
  <circle cx="102" cy="78" r="8" fill="#FF5F57"/>
  <circle cx="130" cy="78" r="8" fill="#FEBC2E"/>
  <circle cx="158" cy="78" r="8" fill="#28C840"/>
  <text x="505" y="84" fill="#334155" font-family="Arial, sans-serif" font-size="18" font-weight="700">Retail launch board.png</text>
  <rect x="96" y="134" width="420" height="300" rx="22" fill="#163247"/>
  <text x="128" y="178" fill="#D1FAE5" font-family="Arial, sans-serif" font-size="15" font-weight="700">Pinned overview</text>
  <text x="128" y="236" fill="#F8FAFC" font-family="Arial, sans-serif" font-size="42" font-weight="700">Launch story</text>
  <text x="128" y="286" fill="#F8FAFC" font-family="Arial, sans-serif" font-size="42" font-weight="700">across four clouds</text>
  <text x="128" y="332" fill="#CBD5E1" font-family="Arial, sans-serif" font-size="22">Keep campaign planning, creative, retail specs, and exec notes in one workspace.</text>
  <rect x="128" y="366" width="160" height="38" rx="19" fill="#F97316"/>
  <text x="167" y="390" fill="#FFF7ED" font-family="Arial, sans-serif" font-size="16" font-weight="700">Prospect demo</text>
  <rect x="546" y="134" width="262" height="186" rx="22" fill="#FFFFFF"/>
  <text x="576" y="176" fill="#111827" font-family="Arial, sans-serif" font-size="18" font-weight="700">Channels</text>
  <rect x="576" y="196" width="198" height="18" rx="9" fill="#E2E8F0"/>
  <rect x="576" y="226" width="138" height="18" rx="9" fill="#BFDBFE"/>
  <rect x="576" y="256" width="172" height="18" rx="9" fill="#C7D2FE"/>
  <rect x="838" y="134" width="266" height="186" rx="22" fill="#FFFFFF"/>
  <text x="868" y="176" fill="#111827" font-family="Arial, sans-serif" font-size="18" font-weight="700">Cloud mix</text>
  <rect x="870" y="204" width="32" height="32" rx="10" fill="#DBEAFE"/>
  <rect x="916" y="204" width="32" height="32" rx="10" fill="#DCFCE7"/>
  <rect x="962" y="204" width="32" height="32" rx="10" fill="#E0E7FF"/>
  <rect x="1008" y="204" width="32" height="32" rx="10" fill="#E5E7EB"/>
  <text x="870" y="264" fill="#475569" font-family="Arial, sans-serif" font-size="16">Dropbox, Drive, OneDrive, iCloud</text>
  <rect x="96" y="462" width="320" height="158" rx="20" fill="#FFFFFF"/>
  <rect x="440" y="462" width="320" height="158" rx="20" fill="#FFFFFF"/>
  <rect x="784" y="462" width="320" height="158" rx="20" fill="#FFFFFF"/>
  <text x="124" y="500" fill="#111827" font-family="Arial, sans-serif" font-size="18" font-weight="700">Creative review</text>
  <text x="468" y="500" fill="#111827" font-family="Arial, sans-serif" font-size="18" font-weight="700">Retail signoff</text>
  <text x="812" y="500" fill="#111827" font-family="Arial, sans-serif" font-size="18" font-weight="700">Leadership notes</text>
  <rect x="124" y="526" width="264" height="18" rx="9" fill="#E2E8F0"/>
  <rect x="124" y="556" width="220" height="18" rx="9" fill="#E2E8F0"/>
  <rect x="468" y="526" width="264" height="18" rx="9" fill="#E2E8F0"/>
  <rect x="468" y="556" width="190" height="18" rx="9" fill="#E2E8F0"/>
  <rect x="812" y="526" width="264" height="18" rx="9" fill="#E2E8F0"/>
  <rect x="812" y="556" width="230" height="18" rx="9" fill="#E2E8F0"/>
  <rect x="96" y="648" width="1008" height="164" rx="20" fill="#FFFFFF"/>
  <text x="126" y="690" fill="#111827" font-family="Arial, sans-serif" font-size="20" font-weight="700">Timeline</text>
  <line x1="148" y1="752" x2="1064" y2="752" stroke="#CBD5E1" stroke-width="8" stroke-linecap="round"/>
  <rect x="178" y="726" width="220" height="52" rx="16" fill="#0EA5E9"/>
  <rect x="430" y="726" width="250" height="52" rx="16" fill="#F97316"/>
  <rect x="716" y="726" width="200" height="52" rx="16" fill="#2563EB"/>
  <rect x="938" y="726" width="96" height="52" rx="16" fill="#9CA3AF"/>
</svg>
