<svg width="1200" height="900" viewBox="0 0 1200 900" fill="none" xmlns="http://www.w3.org/2000/svg">
  <rect width="1200" height="900" fill="#F1ECE4"/>
  <rect x="70" y="72" width="1060" height="756" rx="28" fill="#FBFAF7"/>
  <text x="118" y="138" fill="#173540" font-family="Arial, sans-serif" font-size="30" font-weight="700">Shelf concept review</text>
  <text x="840" y="138" fill="#92400E" font-family="Arial, sans-serif" font-size="18">Linked to retail spec sheet</text>
  <rect x="118" y="190" width="288" height="520" rx="24" fill="#F8F2EA"/>
  <rect x="456" y="190" width="288" height="520" rx="24" fill="#F8F2EA"/>
  <rect x="794" y="190" width="288" height="520" rx="24" fill="#F8F2EA"/>
  <rect x="160" y="228" width="204" height="280" rx="20" fill="#D7B495"/>
  <rect x="192" y="264" width="140" height="148" rx="14" fill="#FFF8F0"/>
  <rect x="498" y="228" width="204" height="280" rx="20" fill="#DAB99A"/>
  <rect x="530" y="264" width="140" height="148" rx="14" fill="#FFF8F0"/>
  <rect x="836" y="228" width="204" height="280" rx="20" fill="#CF6433"/>
  <rect x="868" y="264" width="140" height="148" rx="14" fill="#FFF8F0"/>
  <rect x="170" y="550" width="184" height="16" rx="8" fill="#8A5A44"/>
  <rect x="170" y="578" width="154" height="12" rx="6" fill="#C7A17F"/>
  <rect x="170" y="602" width="170" height="12" rx="6" fill="#C7A17F"/>
  <rect x="508" y="550" width="184" height="16" rx="8" fill="#8A5A44"/>
  <rect x="508" y="578" width="154" height="12" rx="6" fill="#C7A17F"/>
  <rect x="508" y="602" width="170" height="12" rx="6" fill="#C7A17F"/>
  <rect x="846" y="550" width="184" height="16" rx="8" fill="#7B341E"/>
  <rect x="846" y="578" width="154" height="12" rx="6" fill="#FB923C"/>
  <rect x="846" y="602" width="170" height="12" rx="6" fill="#FB923C"/>
  <text x="170" y="662" fill="#5B4033" font-family="Arial, sans-serif" font-size="22" font-weight="700">Calm retail</text>
  <text x="508" y="662" fill="#5B4033" font-family="Arial, sans-serif" font-size="22" font-weight="700">Mass shelf</text>
  <text x="846" y="662" fill="#7B341E" font-family="Arial, sans-serif" font-size="22" font-weight="700">Hero contrast</text>
  <rect x="118" y="744" width="964" height="22" rx="11" fill="#E2D8CB"/>
  <rect x="118" y="744" width="612" height="22" rx="11" fill="#173540"/>
</svg>
