<svg width="1200" height="900" viewBox="0 0 1200 900" fill="none" xmlns="http://www.w3.org/2000/svg">
  <rect width="1200" height="900" rx="48" fill="#F2E7DA"/>
  <rect x="64" y="64" width="1072" height="772" rx="36" fill="#FFFDF9"/>
  <rect x="116" y="116" width="968" height="96" rx="24" fill="#173540"/>
  <text x="156" y="172" fill="#FFF7ED" font-family="Arial, sans-serif" font-size="28" font-weight="700">Packaging concepts v3</text>
  <text x="820" y="172" fill="#FFD9B5" font-family="Arial, sans-serif" font-size="18">Shelf refresh / in review</text>
  <rect x="116" y="260" width="280" height="472" rx="28" fill="#E2C0A4"/>
  <rect x="460" y="260" width="280" height="472" rx="28" fill="#EAD8C5"/>
  <rect x="804" y="260" width="280" height="472" rx="28" fill="#D77545"/>
  <rect x="156" y="320" width="200" height="168" rx="18" fill="#FFF8F0"/>
  <rect x="500" y="320" width="200" height="168" rx="18" fill="#FFF8F0"/>
  <rect x="844" y="320" width="200" height="168" rx="18" fill="#FFF8F0"/>
  <text x="170" y="560" fill="#1F2937" font-family="Arial, sans-serif" font-size="34" font-weight="700">Calm</text>
  <text x="514" y="560" fill="#1F2937" font-family="Arial, sans-serif" font-size="34" font-weight="700">Retail</text>
  <text x="858" y="560" fill="#FFF8F0" font-family="Arial, sans-serif" font-size="34" font-weight="700">Bold</text>
  <text x="168" y="606" fill="#374151" font-family="Arial, sans-serif" font-size="20">Muted shelf presence</text>
  <text x="512" y="606" fill="#374151" font-family="Arial, sans-serif" font-size="20">Balanced for mass market</text>
  <text x="856" y="606" fill="#FFF8F0" font-family="Arial, sans-serif" font-size="20">High contrast hero pack</text>
  <rect x="116" y="760" width="968" height="24" rx="12" fill="#EFE6DC"/>
  <rect x="116" y="760" width="582" height="24" rx="12" fill="#173540"/>
</svg>
