<svg width="1200" height="900" viewBox="0 0 1200 900" fill="none" xmlns="http://www.w3.org/2000/svg">
  <rect width="1200" height="900" fill="#E6E9EF"/>
  <rect x="66" y="54" width="1068" height="792" rx="24" fill="#D9DDE6"/>
  <rect x="92" y="80" width="1016" height="740" rx="18" fill="#0F172A"/>
  <rect x="92" y="80" width="1016" height="54" rx="18" fill="#111827"/>
  <circle cx="126" cy="107" r="7" fill="#F87171"/>
  <circle cx="148" cy="107" r="7" fill="#FBBF24"/>
  <circle cx="170" cy="107" r="7" fill="#34D399"/>
  <rect x="210" y="94" width="232" height="26" rx="13" fill="#1F2937"/>
  <text x="232" y="111" fill="#CBD5E1" font-family="Arial, sans-serif" font-size="13" font-weight="700">launch-teaser-v4.mp4</text>

  <rect x="124" y="164" width="952" height="420" rx="14" fill="#0B1220"/>
  <rect x="154" y="194" width="892" height="320" rx="10" fill="#1E293B"/>
  <rect x="186" y="224" width="356" height="42" rx="8" fill="#334155"/>
  <text x="206" y="251" fill="#F8FAFC" font-family="Arial, sans-serif" font-size="24" font-weight="700">Spring Launch 2026 - Cross-cloud review demo</text>
  <rect x="186" y="284" width="248" height="16" rx="8" fill="#475569"/>
  <rect x="186" y="310" width="296" height="16" rx="8" fill="#475569"/>
  <rect x="186" y="336" width="218" height="16" rx="8" fill="#475569"/>
  <rect x="186" y="384" width="164" height="44" rx="22" fill="#2563EB"/>
  <text x="224" y="412" fill="#EFF6FF" font-family="Arial, sans-serif" font-size="18" font-weight="700">Watch intro</text>
  <rect x="742" y="246" width="248" height="198" rx="12" fill="#0F172A" stroke="#334155"/>
  <path d="M832 292L832 398L906 345L832 292Z" fill="#E5E7EB"/>
  <text x="764" y="472" fill="#94A3B8" font-family="Arial, sans-serif" font-size="14">Dropbox source clip / 32 sec / draft v4</text>

  <rect x="124" y="604" width="952" height="36" rx="18" fill="#111827"/>
  <rect x="144" y="617" width="112" height="10" rx="5" fill="#475569"/>
  <rect x="266" y="617" width="504" height="10" rx="5" fill="#F97316"/>
  <rect x="780" y="617" width="116" height="10" rx="5" fill="#475569"/>
  <rect x="906" y="617" width="150" height="10" rx="5" fill="#475569"/>
  <circle cx="428" cy="622" r="11" fill="#FFFFFF"/>
  <circle cx="654" cy="622" r="11" fill="#FFFFFF"/>

  <rect x="124" y="666" width="952" height="124" rx="14" fill="#111827"/>
  <text x="154" y="708" fill="#E2E8F0" font-family="Arial, sans-serif" font-size="18" font-weight="700">Timeline markers</text>
  <line x1="154" y1="748" x2="1046" y2="748" stroke="#334155" stroke-width="10" stroke-linecap="round"/>
  <rect x="182" y="722" width="170" height="52" rx="12" fill="#F97316"/>
  <rect x="380" y="722" width="238" height="52" rx="12" fill="#1F2937"/>
  <rect x="646" y="722" width="204" height="52" rx="12" fill="#1F2937"/>
  <rect x="878" y="722" width="136" height="52" rx="12" fill="#1F2937"/>
</svg>
