<svg width="1200" height="900" viewBox="0 0 1200 900" fill="none" xmlns="http://www.w3.org/2000/svg">
  <rect width="1200" height="900" fill="#0F172A"/>
  <rect x="70" y="64" width="760" height="520" rx="20" fill="url(#frameGradient)"/>
  <rect x="108" y="112" width="250" height="44" rx="22" fill="rgba(255,255,255,0.16)"/>
  <text x="138" y="140" fill="#F8FAFC" font-family="Arial, sans-serif" font-size="18" font-weight="700">Spring Launch 2026</text>
  <text x="108" y="226" fill="#F8FAFC" font-family="Arial, sans-serif" font-size="54" font-weight="700">All clouds.</text>
  <text x="108" y="290" fill="#F8FAFC" font-family="Arial, sans-serif" font-size="54" font-weight="700">One review flow.</text>
  <text x="108" y="346" fill="#DBEAFE" font-family="Arial, sans-serif" font-size="26">Creative, planning, retail specs, and executive notes stay in the same queue.</text>
  <rect x="108" y="396" width="186" height="54" rx="27" fill="#F97316"/>
  <text x="157" y="430" fill="#FFF7ED" font-family="Arial, sans-serif" font-size="22" font-weight="700">Watch demo</text>
  <rect x="646" y="412" width="132" height="92" rx="18" fill="rgba(255,255,255,0.12)"/>
  <path d="M696 438 696 478 732 458 696 438Z" fill="#FFFFFF"/>
  <rect x="70" y="624" width="1060" height="188" rx="18" fill="#111827"/>
  <rect x="96" y="652" width="1008" height="26" rx="13" fill="#1F2937"/>
  <rect x="124" y="657" width="228" height="16" rx="8" fill="#374151"/>
  <rect x="364" y="657" width="334" height="16" rx="8" fill="#0EA5E9"/>
  <rect x="708" y="657" width="146" height="16" rx="8" fill="#374151"/>
  <rect x="864" y="657" width="214" height="16" rx="8" fill="#374151"/>
  <line x1="124" y1="716" x2="1076" y2="716" stroke="#334155" stroke-width="12" stroke-linecap="round"/>
  <line x1="124" y1="716" x2="678" y2="716" stroke="#F97316" stroke-width="12" stroke-linecap="round"/>
  <circle cx="288" cy="716" r="10" fill="#F8FAFC"/>
  <circle cx="514" cy="716" r="10" fill="#F8FAFC"/>
  <circle cx="678" cy="716" r="10" fill="#F8FAFC"/>
  <rect x="124" y="748" width="170" height="42" rx="10" fill="#F97316"/>
  <rect x="304" y="748" width="214" height="42" rx="10" fill="#1F2937"/>
  <rect x="528" y="748" width="182" height="42" rx="10" fill="#1F2937"/>
  <rect x="720" y="748" width="260" height="42" rx="10" fill="#1F2937"/>
  <defs>
    <linearGradient id="frameGradient" x1="70" y1="64" x2="830" y2="584" gradientUnits="userSpaceOnUse">
      <stop stop-color="#173540"/>
      <stop offset="0.52" stop-color="#D46835"/>
      <stop offset="1" stop-color="#F8D3A8"/>
    </linearGradient>
  </defs>
</svg>
