<svg width="1200" height="900" viewBox="0 0 1200 900" fill="none" xmlns="http://www.w3.org/2000/svg">
  <rect width="1200" height="900" rx="40" fill="#E8EDF3"/>
  <rect x="70" y="50" width="1060" height="800" rx="26" fill="#202633"/>
  <rect x="70" y="50" width="1060" height="54" rx="26" fill="#2D3443"/>
  <circle cx="112" cy="77" r="8" fill="#FF5F57"/>
  <circle cx="140" cy="77" r="8" fill="#FEBC2E"/>
  <circle cx="168" cy="77" r="8" fill="#28C840"/>
  <text x="530" y="82" fill="#E5E7EB" font-family="Arial, sans-serif" font-size="18" font-weight="700">Launch teaser v4.mp4</text>
  <rect x="102" y="132" width="700" height="468" rx="22" fill="#0F172A"/>
  <rect x="128" y="158" width="648" height="416" rx="18" fill="url(#videoGradient)"/>
  <rect x="150" y="188" width="236" height="42" rx="21" fill="rgba(255,255,255,0.15)"/>
  <text x="172" y="216" fill="#F8FAFC" font-family="Arial, sans-serif" font-size="18" font-weight="700">Spring Launch 2026</text>
  <text x="150" y="266" fill="#E2E8F0" font-family="Arial, sans-serif" font-size="48" font-weight="700">One review queue</text>
  <text x="150" y="316" fill="#E2E8F0" font-family="Arial, sans-serif" font-size="48" font-weight="700">across every cloud</text>
  <text x="150" y="370" fill="#DBEAFE" font-family="Arial, sans-serif" font-size="24">Dropbox creative, Google Drive planning, OneDrive specs, and iCloud leadership notes.</text>
  <rect x="150" y="418" width="180" height="52" rx="26" fill="#F97316"/>
  <text x="192" y="451" fill="#FFF7ED" font-family="Arial, sans-serif" font-size="20" font-weight="700">Watch demo</text>
  <rect x="610" y="450" width="132" height="88" rx="18" fill="rgba(255,255,255,0.12)"/>
  <path d="M659 473 659 515 698 494 659 473Z" fill="#FFFFFF"/>
  <rect x="832" y="132" width="266" height="468" rx="22" fill="#161D29"/>
  <text x="862" y="174" fill="#CBD5E1" font-family="Arial, sans-serif" font-size="16" font-weight="700">Inspector</text>
  <rect x="860" y="198" width="210" height="76" rx="14" fill="#0F172A"/>
  <text x="884" y="230" fill="#93C5FD" font-family="Arial, sans-serif" font-size="14" font-weight="700">Source Clouds</text>
  <text x="884" y="256" fill="#E5E7EB" font-family="Arial, sans-serif" font-size="15">Dropbox / Drive / OneDrive / iCloud</text>
  <rect x="860" y="292" width="210" height="92" rx="14" fill="#0F172A"/>
  <text x="884" y="324" fill="#FCA5A5" font-family="Arial, sans-serif" font-size="14" font-weight="700">Timecoded Notes</text>
  <text x="884" y="350" fill="#E5E7EB" font-family="Arial, sans-serif" font-size="15">00:03 opener is static</text>
  <text x="884" y="372" fill="#E5E7EB" font-family="Arial, sans-serif" font-size="15">00:34 CTA needs scale</text>
  <rect x="102" y="626" width="996" height="184" rx="18" fill="#171E2A"/>
  <rect x="128" y="650" width="944" height="46" rx="10" fill="#0F172A"/>
  <rect x="140" y="662" width="210" height="22" rx="6" fill="#334155"/>
  <rect x="360" y="662" width="320" height="22" rx="6" fill="#1E293B"/>
  <rect x="690" y="662" width="176" height="22" rx="6" fill="#0EA5E9"/>
  <rect x="128" y="714" width="944" height="70" rx="12" fill="#0F172A"/>
  <g opacity="0.9">
    <rect x="150" y="728" width="122" height="42" rx="8" fill="#F97316"/>
    <rect x="278" y="728" width="210" height="42" rx="8" fill="#334155"/>
    <rect x="494" y="728" width="176" height="42" rx="8" fill="#334155"/>
    <rect x="676" y="728" width="246" height="42" rx="8" fill="#334155"/>
  </g>
  <defs>
    <linearGradient id="videoGradient" x1="128" y1="158" x2="776" y2="574" gradientUnits="userSpaceOnUse">
      <stop stop-color="#12334F"/>
      <stop offset="0.52" stop-color="#D46835"/>
      <stop offset="1" stop-color="#F8D3A8"/>
    </linearGradient>
  </defs>
</svg>
